# xmcd
#
# Track frame offsets: 
#        150
#        13971
#        29421
#        44471
#        62085
#        77923
#
# Disc length: 1370 seconds
#
# Revision: 0
# Processed by: cddbd v1.5.2PL0 Copyright (c) Steve Scherf et al.
# Submitted via: ExactAudioCopy v0.99pb4
#
DISCID=4c055806
DTITLE=Ben Harper - Live at Twist and Shout
DYEAR=2007
DGENRE=Blues
TTITLE0=In The Colors (Live)
TTITLE1=Fool For A Lonesome Train (Live)
TTITLE2=Needed You Tonight (Live)
TTITLE3=Say You Will (Live)
TTITLE4=Having Wings (Live)
TTITLE5=Steal My Kisses (Live)
EXTD=
EXTT0=
EXTT1=
EXTT2=
EXTT3=
EXTT4=
EXTT5=
PLAYORDER=
